<?xml version="1.0" encoding="utf-8"?>
<!-- Generator: Adobe Illustrator 22.0.0, SVG Export Plug-In . SVG Version: 6.00 Build 0)  -->
<svg version="1.1" id="Layer_1" xmlns="http://www.w3.org/2000/svg" xmlns:xlink="http://www.w3.org/1999/xlink" x="0px" y="0px"
	 viewBox="0 0 366 433" style="enable-background:new 0 0 366 433;" xml:space="preserve">
<style type="text/css">
	.st0{fill:url(#SVGID_1_);}
	.st1{fill:url(#SVGID_2_);}
	.st2{fill:url(#SVGID_3_);}
	.st3{display:none;}
	.st4{display:inline;}
	.st5{fill:url(#SVGID_4_);}
	.st6{fill:#FFFFAB;}
	.st7{fill:url(#SVGID_5_);}
	.st8{fill:url(#SVGID_6_);}
	.st9{fill:url(#SVGID_7_);}
	.st10{fill:url(#SVGID_8_);}
	.st11{fill:url(#SVGID_9_);}
	.st12{fill:url(#SVGID_10_);}
	.st13{fill:url(#SVGID_11_);}
	.st14{fill:url(#SVGID_12_);}
	.st15{fill:url(#SVGID_13_);}
	.st16{fill:url(#SVGID_14_);}
	.st17{fill:url(#SVGID_15_);}
	.st18{fill:url(#SVGID_16_);}
	.st19{opacity:0.5;fill:#10A5D5;}
	.st20{fill:#FFFFFF;}
</style>
<g>
	<linearGradient id="SVGID_1_" gradientUnits="userSpaceOnUse" x1="7.8704" y1="216.4455" x2="357.143" y2="216.4455">
		<stop  offset="0" style="stop-color:#004AC2"/>
		<stop  offset="1" style="stop-color:#0083C2"/>
	</linearGradient>
	<path class="st0" d="M12.1,33.2c-9.6,11.7-1.1,364.4,7.6,379c8.1,13.6,310.4,14.1,326.1,0c15.7-14.1,14.6-379.4,0-392.5
		C331.2,6.7,36,4,12.1,33.2z"/>
	<linearGradient id="SVGID_2_" gradientUnits="userSpaceOnUse" x1="183.2341" y1="419.7514" x2="183.2341" y2="7.5474">
		<stop  offset="0" style="stop-color:#00EFF1"/>
		<stop  offset="1" style="stop-color:#0098FF"/>
	</linearGradient>
	<path class="st1" d="M12.8,30.4c-9.6,11.7-1.1,364.4,7.6,379c8.1,13.6,310.4,14.1,326.1,0c15.7-14.1,14.6-379.4,0-392.5
		C331.9,3.9,36.7,1.2,12.8,30.4z"/>
	
		<radialGradient id="SVGID_3_" cx="183.7639" cy="214.4586" r="186.7151" gradientTransform="matrix(1.0187 0 0 1.0068 -3.4225 -1.4572)" gradientUnits="userSpaceOnUse">
		<stop  offset="0" style="stop-color:#0025AE"/>
		<stop  offset="1" style="stop-color:#008CCA"/>
	</radialGradient>
	<path class="st2" d="M15.7,33.4C6.2,45,11,386.2,23.1,406.1c8.1,13.3,302.5,18.1,320.7,0c20.3-20.2,14.4-373.1,0-385.9
		C329.4,7.4,39.1,4.7,15.7,33.4z"/>
	<g class="st3">
		<g class="st4">
			
				<radialGradient id="SVGID_4_" cx="583.3589" cy="-304.6961" r="3.4985" gradientTransform="matrix(-6.071543e-02 -1.005 1.0169 -6.000387e-02 426.1908 804.9904)" gradientUnits="userSpaceOnUse">
				<stop  offset="0" style="stop-color:#00B359"/>
				<stop  offset="0.1271" style="stop-color:#009148"/>
				<stop  offset="0.342" style="stop-color:#005E2F"/>
				<stop  offset="0.544" style="stop-color:#00351A"/>
				<stop  offset="0.7272" style="stop-color:#00180C"/>
				<stop  offset="0.8852" style="stop-color:#000603"/>
				<stop  offset="1" style="stop-color:#000000"/>
			</radialGradient>
			<ellipse class="st5" cx="80.9" cy="237" rx="3.6" ry="3.5"/>
			<path class="st6" d="M81.1,236c0.5,0,1,0.4,1,0.9s-0.4,1-0.9,1c-0.5,0-1-0.4-1-0.9S80.6,236.1,81.1,236z"/>
		</g>
		<g class="st4">
			
				<radialGradient id="SVGID_5_" cx="598.0676" cy="-299.0568" r="3.4985" gradientTransform="matrix(-6.071543e-02 -1.005 1.0169 -6.000387e-02 426.1908 804.9904)" gradientUnits="userSpaceOnUse">
				<stop  offset="0" style="stop-color:#00B359"/>
				<stop  offset="0.1271" style="stop-color:#009148"/>
				<stop  offset="0.342" style="stop-color:#005E2F"/>
				<stop  offset="0.544" style="stop-color:#00351A"/>
				<stop  offset="0.7272" style="stop-color:#00180C"/>
				<stop  offset="0.8852" style="stop-color:#000603"/>
				<stop  offset="1" style="stop-color:#000000"/>
			</radialGradient>
			<ellipse class="st7" cx="85.8" cy="221.9" rx="3.6" ry="3.5"/>
			<path class="st6" d="M86,220.9c0.5,0,1,0.4,1,0.9c0,0.5-0.4,1-0.9,1c-0.5,0-1-0.4-1-0.9S85.4,220.9,86,220.9z"/>
		</g>
		<g class="st4">
			
				<radialGradient id="SVGID_6_" cx="555.2214" cy="-304.4235" r="3.4985" gradientTransform="matrix(-6.071543e-02 -1.005 1.0169 -6.000387e-02 426.1908 804.9904)" gradientUnits="userSpaceOnUse">
				<stop  offset="0" style="stop-color:#00B359"/>
				<stop  offset="0.1271" style="stop-color:#009148"/>
				<stop  offset="0.342" style="stop-color:#005E2F"/>
				<stop  offset="0.544" style="stop-color:#00351A"/>
				<stop  offset="0.7272" style="stop-color:#00180C"/>
				<stop  offset="0.8852" style="stop-color:#000603"/>
				<stop  offset="1" style="stop-color:#000000"/>
			</radialGradient>
			<path class="st8" d="M82.7,261.8c2-0.1,3.7,1.4,3.8,3.3c0.1,1.9-1.4,3.6-3.3,3.7c-2,0.1-3.7-1.4-3.8-3.3
				C79.2,263.5,80.7,261.9,82.7,261.8z"/>
			<path class="st6" d="M83.1,264.3c0.5,0,1,0.4,1,0.9c0,0.5-0.4,1-0.9,1c-0.5,0-1-0.4-1-0.9C82.2,264.8,82.6,264.3,83.1,264.3z"/>
		</g>
		<g class="st4">
			
				<radialGradient id="SVGID_7_" cx="600.5968" cy="-317.8342" r="9.7898" gradientTransform="matrix(-6.071543e-02 -1.005 1.0169 -6.000387e-02 426.1908 804.9904)" gradientUnits="userSpaceOnUse">
				<stop  offset="0" style="stop-color:#00B359"/>
				<stop  offset="0.1271" style="stop-color:#009148"/>
				<stop  offset="0.342" style="stop-color:#005E2F"/>
				<stop  offset="0.544" style="stop-color:#00351A"/>
				<stop  offset="0.7272" style="stop-color:#00180C"/>
				<stop  offset="0.8852" style="stop-color:#000603"/>
				<stop  offset="1" style="stop-color:#000000"/>
			</radialGradient>
			<path class="st9" d="M65.9,210.6c5.5-0.3,10.2,3.8,10.5,9.3c0.3,5.4-3.9,10.1-9.4,10.4c-5.5,0.3-10.2-3.8-10.5-9.3
				C56.2,215.6,60.4,211,65.9,210.6z"/>
			<path class="st6" d="M67.1,217.7c1.5-0.1,2.8,1.1,2.9,2.6c0.1,1.5-1.1,2.8-2.6,2.9c-1.5,0.1-2.8-1.1-2.9-2.6
				C64.5,219.1,65.6,217.8,67.1,217.7z"/>
		</g>
		<g class="st4">
			
				<radialGradient id="SVGID_8_" cx="517.8468" cy="-121.4939" r="9.7898" gradientTransform="matrix(-6.071543e-02 -1.005 1.0169 -6.000387e-02 426.1908 804.9904)" gradientUnits="userSpaceOnUse">
				<stop  offset="0" style="stop-color:#00B359"/>
				<stop  offset="0.1271" style="stop-color:#009148"/>
				<stop  offset="0.342" style="stop-color:#005E2F"/>
				<stop  offset="0.544" style="stop-color:#00351A"/>
				<stop  offset="0.7272" style="stop-color:#00180C"/>
				<stop  offset="0.8852" style="stop-color:#000603"/>
				<stop  offset="1" style="stop-color:#000000"/>
			</radialGradient>
			<path class="st10" d="M270.6,282c5.5-0.3,10.2,3.8,10.5,9.3c0.3,5.4-3.9,10.1-9.4,10.4s-10.2-3.8-10.5-9.3
				C260.9,287,265.1,282.3,270.6,282z"/>
			<path class="st6" d="M271.8,289.1c1.5-0.1,2.8,1.1,2.9,2.6c0.1,1.5-1.1,2.8-2.6,2.9c-1.5,0.1-2.8-1.1-2.9-2.6
				C269.1,290.5,270.3,289.2,271.8,289.1z"/>
		</g>
		<g class="st4">
			
				<radialGradient id="SVGID_9_" cx="524.6267" cy="-70.7861" r="4.6759" gradientTransform="matrix(-6.071543e-02 -1.005 1.0169 -6.000387e-02 426.1908 804.9904)" gradientUnits="userSpaceOnUse">
				<stop  offset="0" style="stop-color:#00B359"/>
				<stop  offset="0.1271" style="stop-color:#009148"/>
				<stop  offset="0.342" style="stop-color:#005E2F"/>
				<stop  offset="0.544" style="stop-color:#00351A"/>
				<stop  offset="0.7272" style="stop-color:#00180C"/>
				<stop  offset="0.8852" style="stop-color:#000603"/>
				<stop  offset="1" style="stop-color:#000000"/>
			</radialGradient>
			<path class="st11" d="M322.1,277.3c2.6-0.2,4.9,1.8,5,4.4c0.2,2.6-1.8,4.8-4.5,5s-4.9-1.8-5-4.4
				C317.4,279.7,319.4,277.5,322.1,277.3z"/>
			<path class="st6" d="M322.6,280.7c0.7,0,1.4,0.5,1.4,1.2c0,0.7-0.5,1.3-1.2,1.4c-0.7,0-1.4-0.5-1.4-1.2
				C321.4,281.3,321.9,280.7,322.6,280.7z"/>
		</g>
		<g class="st4">
			
				<radialGradient id="SVGID_10_" cx="529.4466" cy="-294.4108" r="4.6759" gradientTransform="matrix(-6.071543e-02 -1.005 1.0169 -6.000387e-02 426.1908 804.9904)" gradientUnits="userSpaceOnUse">
				<stop  offset="0" style="stop-color:#00B359"/>
				<stop  offset="0.1271" style="stop-color:#009148"/>
				<stop  offset="0.342" style="stop-color:#005E2F"/>
				<stop  offset="0.544" style="stop-color:#00351A"/>
				<stop  offset="0.7272" style="stop-color:#00180C"/>
				<stop  offset="0.8852" style="stop-color:#000603"/>
				<stop  offset="1" style="stop-color:#000000"/>
			</radialGradient>
			<path class="st12" d="M94.4,285.9c2.6-0.2,4.9,1.8,5,4.4c0.2,2.6-1.8,4.8-4.5,5c-2.6,0.2-4.9-1.8-5-4.4
				C89.8,288.3,91.8,286,94.4,285.9z"/>
			<path class="st6" d="M95,289.3c0.7,0,1.4,0.5,1.4,1.2c0,0.7-0.5,1.3-1.2,1.4c-0.7,0-1.4-0.5-1.4-1.2
				C93.7,289.9,94.2,289.3,95,289.3z"/>
		</g>
		<g class="st4">
			
				<radialGradient id="SVGID_11_" cx="541.2181" cy="-159.3751" r="2.3379" gradientTransform="matrix(-6.071543e-02 -1.005 1.0169 -6.000387e-02 426.1908 804.9904)" gradientUnits="userSpaceOnUse">
				<stop  offset="0" style="stop-color:#00B359"/>
				<stop  offset="0.1271" style="stop-color:#009148"/>
				<stop  offset="0.342" style="stop-color:#005E2F"/>
				<stop  offset="0.544" style="stop-color:#00351A"/>
				<stop  offset="0.7272" style="stop-color:#00180C"/>
				<stop  offset="0.8852" style="stop-color:#000603"/>
				<stop  offset="1" style="stop-color:#000000"/>
			</radialGradient>
			<path class="st13" d="M231.1,268.3c1.3-0.1,2.4,0.9,2.5,2.2c0.1,1.3-0.9,2.4-2.2,2.5c-1.3,0.1-2.4-0.9-2.5-2.2
				C228.8,269.5,229.8,268.4,231.1,268.3z"/>
			<path class="st6" d="M231.4,270c0.4,0,0.7,0.3,0.7,0.6c0,0.4-0.3,0.7-0.6,0.7c-0.4,0-0.7-0.3-0.7-0.6
				C230.8,270.3,231,270,231.4,270z"/>
		</g>
		<g class="st4">
			
				<radialGradient id="SVGID_12_" cx="521.9359" cy="-336.5884" r="2.338" gradientTransform="matrix(-6.071543e-02 -1.005 1.0169 -6.000387e-02 426.1908 804.9904)" gradientUnits="userSpaceOnUse">
				<stop  offset="0" style="stop-color:#00B359"/>
				<stop  offset="0.1271" style="stop-color:#009148"/>
				<stop  offset="0.342" style="stop-color:#005E2F"/>
				<stop  offset="0.544" style="stop-color:#00351A"/>
				<stop  offset="0.7272" style="stop-color:#00180C"/>
				<stop  offset="0.8852" style="stop-color:#000603"/>
				<stop  offset="1" style="stop-color:#000000"/>
			</radialGradient>
			<path class="st14" d="M52.1,298.3c1.3-0.1,2.4,0.9,2.5,2.2c0.1,1.3-0.9,2.4-2.2,2.5c-1.3,0.1-2.4-0.9-2.5-2.2
				C49.8,299.5,50.8,298.4,52.1,298.3z"/>
			<path class="st6" d="M52.4,300c0.4,0,0.7,0.3,0.7,0.6c0,0.4-0.3,0.7-0.6,0.7s-0.7-0.3-0.7-0.6C51.7,300.3,52,300,52.4,300z"/>
		</g>
		<g class="st4">
			
				<radialGradient id="SVGID_13_" cx="558.0823" cy="-268.621" r="2.338" gradientTransform="matrix(-6.071543e-02 -1.005 1.0169 -6.000387e-02 426.1908 804.9904)" gradientUnits="userSpaceOnUse">
				<stop  offset="0" style="stop-color:#00B359"/>
				<stop  offset="0.1271" style="stop-color:#009148"/>
				<stop  offset="0.342" style="stop-color:#005E2F"/>
				<stop  offset="0.544" style="stop-color:#00351A"/>
				<stop  offset="0.7272" style="stop-color:#00180C"/>
				<stop  offset="0.8852" style="stop-color:#000603"/>
				<stop  offset="1" style="stop-color:#000000"/>
			</radialGradient>
			<path class="st15" d="M119,257.9c1.3-0.1,2.4,0.9,2.5,2.2c0.1,1.3-0.9,2.4-2.2,2.5c-1.3,0.1-2.4-0.9-2.5-2.2
				C116.7,259.1,117.7,258,119,257.9z"/>
			<path class="st6" d="M119.3,259.6c0.4,0,0.7,0.3,0.7,0.6c0,0.4-0.3,0.7-0.6,0.7c-0.4,0-0.7-0.3-0.7-0.6
				C118.7,259.9,118.9,259.6,119.3,259.6z"/>
		</g>
		<g class="st4">
			
				<radialGradient id="SVGID_14_" cx="523.985" cy="-303.1822" r="1.743" gradientTransform="matrix(-6.071543e-02 -1.005 1.0169 -6.000387e-02 426.1908 804.9904)" gradientUnits="userSpaceOnUse">
				<stop  offset="0" style="stop-color:#00B359"/>
				<stop  offset="0.1271" style="stop-color:#009148"/>
				<stop  offset="0.342" style="stop-color:#005E2F"/>
				<stop  offset="0.544" style="stop-color:#00351A"/>
				<stop  offset="0.7272" style="stop-color:#00180C"/>
				<stop  offset="0.8852" style="stop-color:#000603"/>
				<stop  offset="1" style="stop-color:#000000"/>
			</radialGradient>
			<path class="st16" d="M86,294.8c1-0.1,1.8,0.7,1.9,1.6c0.1,1-0.7,1.8-1.7,1.9s-1.8-0.7-1.9-1.6S85,294.9,86,294.8z"/>
			<path class="st6" d="M86.2,296.1c0.3,0,0.5,0.2,0.5,0.5c0,0.3-0.2,0.5-0.5,0.5c-0.3,0-0.5-0.2-0.5-0.5S85.9,296.1,86.2,296.1z"/>
		</g>
		<g class="st4">
			
				<radialGradient id="SVGID_15_" cx="510.1896" cy="-182.5514" r="3.6518" gradientTransform="matrix(-6.071543e-02 -1.005 1.0169 -6.000387e-02 426.1908 804.9904)" gradientUnits="userSpaceOnUse">
				<stop  offset="0" style="stop-color:#00B359"/>
				<stop  offset="0.1271" style="stop-color:#009148"/>
				<stop  offset="0.342" style="stop-color:#005E2F"/>
				<stop  offset="0.544" style="stop-color:#00351A"/>
				<stop  offset="0.7272" style="stop-color:#00180C"/>
				<stop  offset="0.8852" style="stop-color:#000603"/>
				<stop  offset="1" style="stop-color:#000000"/>
			</radialGradient>
			<path class="st17" d="M209.4,299.6c2.1-0.1,3.8,1.4,3.9,3.5s-1.4,3.8-3.5,3.9c-2.1,0.1-3.8-1.4-3.9-3.5
				C205.7,301.4,207.3,299.7,209.4,299.6z"/>
			<path class="st6" d="M209.8,302.2c0.6,0,1.1,0.4,1.1,1c0,0.6-0.4,1-1,1.1c-0.6,0-1.1-0.4-1.1-1
				C208.8,302.7,209.2,302.2,209.8,302.2z"/>
		</g>
		<g class="st4">
			
				<radialGradient id="SVGID_16_" cx="512.1524" cy="-259.5375" r="3.6518" gradientTransform="matrix(-6.071543e-02 -1.005 1.0169 -6.000387e-02 426.1908 804.9904)" gradientUnits="userSpaceOnUse">
				<stop  offset="0" style="stop-color:#00B359"/>
				<stop  offset="0.1271" style="stop-color:#009148"/>
				<stop  offset="0.342" style="stop-color:#005E2F"/>
				<stop  offset="0.544" style="stop-color:#00351A"/>
				<stop  offset="0.7272" style="stop-color:#00180C"/>
				<stop  offset="0.8852" style="stop-color:#000603"/>
				<stop  offset="1" style="stop-color:#000000"/>
			</radialGradient>
			<path class="st18" d="M131,302.2c2.1-0.1,3.8,1.4,3.9,3.5c0.1,2-1.4,3.8-3.5,3.9c-2.1,0.1-3.8-1.4-3.9-3.5
				C127.3,304.1,128.9,302.3,131,302.2z"/>
			<path class="st6" d="M131.4,304.8c0.6,0,1.1,0.4,1.1,1c0,0.6-0.4,1-1,1.1c-0.6,0-1.1-0.4-1.1-1
				C130.4,305.4,130.8,304.9,131.4,304.8z"/>
		</g>
	</g>
	<path class="st19" d="M20.3,35.2c0,0-19.2,26.3,36.8,33.3c56,7,113.7-32.4,162.6-40.4c48.9-8.1,90.3-10,90.3-10S80.9-0.8,20.3,35.2
		z"/>
	<path class="st20" d="M19,44.1c0,0-1.5-5.5,3.5-10.1c5-4.6,32.1-13.7,34.5-11.4C59.4,24.9,30,45.6,19,44.1z"/>
	<path class="st20" d="M21,49.4c-2.4-1.4-6.6,5.1-1.6,7.7S24,51.1,21,49.4z"/>
	<path class="st20" d="M337.2,411.4c-2.6-1.1,10.4-14.1,11.6-13.1c1.2,1-0.4,8.6-2.4,10.3C344.4,410.3,338.9,412.1,337.2,411.4z"/>
</g>
</svg>
