<?xml version="1.0" encoding="utf-8"?>
<!-- Generator: Adobe Illustrator 22.0.0, SVG Export Plug-In . SVG Version: 6.00 Build 0)  -->
<svg version="1.1" id="Layer_1" xmlns="http://www.w3.org/2000/svg" xmlns:xlink="http://www.w3.org/1999/xlink" x="0px" y="0px"
	 viewBox="0 0 286 261" style="enable-background:new 0 0 286 261;" xml:space="preserve">
<style type="text/css">
	.st0{fill:url(#SVGID_1_);}
	.st1{fill:url(#SVGID_2_);}
	.st2{fill:url(#SVGID_3_);}
	.st3{display:none;fill:#FF5200;}
	.st4{fill:#FF5200;}
	.st5{fill:#FFFFFF;}
</style>
<g>
	
		<radialGradient id="SVGID_1_" cx="15.6309" cy="208.4984" r="159.474" gradientTransform="matrix(0.5333 0 0 1 138.1863 0)" gradientUnits="userSpaceOnUse">
		<stop  offset="0" style="stop-color:#FFBD00"/>
		<stop  offset="1" style="stop-color:#FF772C"/>
	</radialGradient>
	<path class="st0" d="M36.6,194.2c7.6,29.8,192.7,38.2,208.4,7.2c14.3-28.2,7.4-121.1-4.8-141.2C223.5,32.8,60.2,44,46.7,65.6
		C34.1,85.7,28.7,163.3,36.6,194.2z"/>
	<linearGradient id="SVGID_2_" gradientUnits="userSpaceOnUse" x1="142.959" y1="211.4252" x2="142.959" y2="45.695">
		<stop  offset="0" style="stop-color:#FFF300"/>
		<stop  offset="1" style="stop-color:#FF9700"/>
	</linearGradient>
	<path class="st1" d="M37.2,189c7.6,28.8,191.5,30.8,207.2,0.9c14.3-27.2,7.6-109.1-4.6-128.5C223.2,35,60.5,45.5,47,66.3
		C34.5,85.7,29.3,159.1,37.2,189z"/>
	<linearGradient id="SVGID_3_" gradientUnits="userSpaceOnUse" x1="142.9592" y1="208.2151" x2="142.9592" y2="47.5322">
		<stop  offset="0" style="stop-color:#FFCC00"/>
		<stop  offset="1" style="stop-color:#FF9700"/>
	</linearGradient>
	<path class="st2" d="M39.5,186.4c7.4,27.9,187.4,29.9,202.7,0.9c14-26.4,7.4-105.6-4.6-124.4C221.4,37.2,62.3,47.2,49.1,67.4
		C36.8,86.2,31.8,157.5,39.5,186.4z"/>
	<path class="st3" d="M161.3,83.9l-49.9,8.5l-17.6,47.5l32.4,39l49.9-8.5l17.6-47.5L161.3,83.9z M147.9,159.3
		c-11.7,2-22.8-5.9-24.8-17.6c-2-11.7,5.9-22.8,17.6-24.8c11.7-2,22.8,5.9,24.8,17.6C167.4,146.2,159.5,157.3,147.9,159.3z"/>
	<path class="st4" d="M119.9,82.4c-11.7,2-5.1,97.7,0,101.9c5.1,4.2,65.2-40.8,66.1-48.8C186.8,127.6,136,79.6,119.9,82.4z"/>
	<path class="st5" d="M233.6,193.2c-1-3.2,7.5-17.8,9.6-17.7c2.1,0.1,0.2,9.6-1.1,11.8C240.9,189.5,234.1,194.8,233.6,193.2z"/>
	<path class="st5" d="M48.6,83.9c0,0-5.9-15.3,5.5-20.7c11.5-5.4,49.1-10.6,50.9-9.2c1.9,1.4-15.9,7.8-25.1,11.2
		C70.8,68.5,53.3,86.5,48.6,83.9z"/>
</g>
</svg>
